<svg version="1.1" id="Layer_1" xmlns="http://www.w3.org/2000/svg" xmlns:xlink="http://www.w3.org/1999/xlink" x="0px" y="0px"
	 width="100%" viewBox="0 0 200 200" enable-background="new 0 0 200 200" xml:space="preserve">
<path fill="#022E89" opacity="1.000000" stroke="none" 
	d="
M180.000549,201.000000 
	C120.000412,201.000000 60.500439,201.000000 1.000350,201.000000 
	C1.000233,134.333527 1.000233,67.667038 1.000117,1.000422 
	C67.666451,1.000281 134.332901,1.000281 200.999512,1.000140 
	C200.999664,67.666420 200.999664,134.332840 200.999832,200.999634 
	C194.166901,201.000000 187.333817,201.000000 180.000549,201.000000 
M20.864208,98.339211 
	C20.768164,98.598129 20.812338,98.813354 20.723677,99.625847 
	C20.693884,100.084892 20.664091,100.543938 20.242630,101.622879 
	C19.977385,104.151443 19.712139,106.680008 19.356997,110.065559 
	C22.243452,109.672722 24.643328,109.346100 27.756824,109.168571 
	C36.283733,111.110909 30.741978,102.722244 34.350769,100.559044 
	C36.236168,103.067139 38.165531,105.683144 40.148228,108.258080 
	C42.371490,111.145447 44.876728,111.144722 45.936741,107.687126 
	C47.187778,103.606453 47.522743,99.232025 48.061687,94.960571 
	C48.138264,94.353691 47.125568,93.609375 46.617027,92.928665 
	C46.062229,93.525070 45.213116,94.035423 45.008762,94.734299 
	C44.435081,96.696266 44.127213,98.735962 43.527344,101.656052 
	C41.009636,98.036438 38.970016,95.104156 36.816540,91.567558 
	C35.521397,91.618851 34.226250,91.670143 32.301662,91.862137 
	C31.878611,91.931847 31.455557,92.001556 30.518343,91.637344 
	C27.342842,90.577629 24.121553,88.907143 21.262690,93.110992 
	C21.212118,94.408569 21.161547,95.706154 20.936607,97.587296 
	C20.973446,97.786949 21.010283,97.986595 20.864208,98.339211 
M148.030411,109.812187 
	C148.030411,109.812187 147.983994,110.026733 148.179855,110.675575 
	C150.477386,113.968872 152.315369,113.101921 153.221664,111.078957 
	C158.465057,111.760216 163.145340,112.368309 168.367599,113.046822 
	C168.171844,110.842995 168.029388,109.239273 168.000153,106.778069 
	C170.011810,106.124878 172.023483,105.471680 174.693909,104.604591 
	C174.705536,111.804253 178.767609,109.757843 182.684921,109.389305 
	C181.320160,103.303947 180.040329,97.597290 178.889404,92.465416 
	C172.382980,90.347145 169.018082,92.820488 167.305023,98.369446 
	C166.789276,100.040024 165.857300,101.611229 164.906311,103.093407 
	C164.719315,103.384834 163.567856,103.057442 162.999954,102.159500 
	C163.297134,98.850586 163.594299,95.541664 163.854538,92.644051 
	C153.772720,88.880150 155.127884,98.576233 151.092911,102.361755 
	C150.296875,98.710396 149.572998,95.390007 148.893723,92.274200 
	C146.032791,92.274200 143.628632,92.274200 141.170776,92.274200 
	C140.301056,97.172791 139.493301,101.722389 138.041397,106.650978 
	C136.936462,102.762634 135.836716,98.872803 134.724304,94.986595 
	C134.190125,93.120430 133.798370,91.049820 130.361511,91.892357 
	C128.800629,92.524422 127.239746,93.156479 125.817444,93.916924 
	C125.817444,93.916924 125.719475,93.755394 125.269478,93.897217 
	C125.269478,93.897217 124.903831,94.195396 124.448616,94.495010 
	C123.748154,94.646332 123.047699,94.797653 122.347237,94.948975 
	C121.548615,90.524048 118.093948,90.839668 114.886040,90.830292 
	C112.244125,90.822571 109.589294,90.824478 106.963394,91.070152 
	C104.625923,91.288857 102.320297,91.847832 98.582787,92.506500 
	C96.120705,91.062195 92.164062,88.568954 87.154739,92.007851 
	C84.044258,92.024925 80.884735,91.724236 77.844048,92.193542 
	C76.330887,92.427086 75.035591,94.072166 73.008919,95.452362 
	C72.568764,95.630661 71.875732,96.085403 71.724876,95.947411 
	C65.648201,90.389069 58.316982,92.308708 51.312336,91.964233 
	C50.520435,97.120346 49.656380,101.776497 49.194809,106.472206 
	C49.087059,107.568375 50.282753,109.768478 50.985191,109.813896 
	C56.538658,110.172897 62.165257,110.443642 66.927094,106.581032 
	C67.816017,105.859993 69.008698,105.513435 70.096725,105.521706 
	C70.388138,105.698776 70.679550,105.875839 71.162811,106.661919 
	C72.115135,107.422234 73.067451,108.182541 74.565765,109.388474 
	C76.071007,109.842155 77.576248,110.295845 79.828621,110.811401 
	C82.909012,111.052795 86.020210,111.661217 89.058929,111.406136 
	C91.073486,111.237022 92.984230,109.831207 95.288010,108.718582 
	C95.288010,108.718582 95.657700,108.492195 96.505432,108.666664 
	C97.655609,108.614861 98.805794,108.563057 100.332726,109.236252 
	C102.357803,109.474556 104.382881,109.712860 106.474815,109.959030 
	C107.019661,107.998047 107.442635,106.475685 108.669762,104.961311 
	C109.206032,104.947258 109.742302,104.933205 110.794151,105.398140 
	C112.009933,109.507973 114.217949,112.055847 119.703949,110.798210 
	C120.373627,110.458992 121.513466,110.243347 121.640137,109.761414 
	C122.884987,105.025169 126.028786,104.566963 130.076721,106.614922 
	C130.520218,107.973602 130.963715,109.332275 131.502716,110.983528 
	C134.872696,109.524178 139.414444,113.489441 141.794052,107.272301 
	C142.289017,105.452995 142.783997,103.633682 143.278961,101.814377 
	C143.629593,101.893852 143.980240,101.973320 144.330872,102.052795 
	C144.945114,104.039474 145.559341,106.026154 146.146484,108.630905 
	C146.773972,108.951492 147.401459,109.272087 148.030411,109.812187 
z"/>
<path fill="#EEF5F9" opacity="1.000000" stroke="none" 
	d="
M74.019775,108.942856 
	C73.067451,108.182541 72.115135,107.422234 70.943802,106.157822 
	C70.540047,105.397163 70.318848,105.177277 70.061195,104.994057 
	C69.008698,105.513435 67.816017,105.859993 66.927094,106.581032 
	C62.165257,110.443642 56.538658,110.172897 50.985191,109.813896 
	C50.282753,109.768478 49.087059,107.568375 49.194809,106.472206 
	C49.656380,101.776497 50.520435,97.120346 51.312336,91.964233 
	C58.316982,92.308708 65.648201,90.389069 71.724876,95.947411 
	C71.875732,96.085403 72.568764,95.630661 73.513031,95.503334 
	C75.782234,95.417839 77.547340,95.281372 79.286575,95.513687 
	C78.808823,97.255814 78.356926,98.629166 77.593445,100.108498 
	C76.749886,101.788658 76.253716,103.376137 75.675117,104.932983 
	C75.171692,106.287575 74.575157,107.607567 74.019775,108.942856 
M56.244076,105.957825 
	C56.738396,106.532951 57.334728,107.665985 57.711296,107.597130 
	C61.585712,106.888680 64.477875,98.395569 61.835506,95.418724 
	C61.166466,94.664993 59.869064,94.122643 58.869160,94.136070 
	C58.247566,94.144409 57.225346,95.313004 57.103516,96.075920 
	C56.625240,99.070992 56.433048,102.111740 56.244076,105.957825 
M70.796890,103.375221 
	C70.988937,103.216835 71.180984,103.058456 71.373039,102.900078 
	C71.277847,102.797211 71.182655,102.694336 71.087471,102.591469 
	C70.916328,102.772820 70.745193,102.954170 70.796890,103.375221 
z"/>
<path fill="#E9F2F7" opacity="1.000000" stroke="none" 
	d="
M138.685547,106.271988 
	C139.493301,101.722389 140.301056,97.172791 141.170776,92.274200 
	C143.628632,92.274200 146.032791,92.274200 148.893723,92.274200 
	C149.572998,95.390007 150.296875,98.710396 151.092911,102.361755 
	C155.127884,98.576233 153.772720,88.880150 163.854538,92.644051 
	C163.594299,95.541664 163.297134,98.850586 162.677673,102.780228 
	C161.565155,105.469162 160.774887,107.537361 159.615295,109.688370 
	C158.502014,109.689621 157.758041,109.608070 157.019073,109.162231 
	C156.616837,105.781853 156.209595,102.765755 155.802368,99.749664 
	C155.552368,99.642128 155.302353,99.534584 155.052338,99.427048 
	C154.041000,102.290749 153.029648,105.154457 152.009155,108.009079 
	C152.000000,108.000000 152.020462,108.017441 151.813766,108.143799 
	C151.352295,108.482674 151.169250,108.745201 151.028534,109.042007 
	C150.999130,109.026260 151.053009,109.071709 150.864441,109.113876 
	C150.428314,109.248474 150.220825,109.396904 149.711029,109.691452 
	C148.907104,109.863281 148.445541,109.945007 147.983994,110.026733 
	C147.983994,110.026733 148.030411,109.812187 147.876999,109.509293 
	C147.206924,108.808540 146.690247,108.410683 146.173584,108.012833 
	C145.559341,106.026154 144.945114,104.039474 144.330872,102.052795 
	C143.980240,101.973320 143.629593,101.893852 143.278961,101.814377 
	C142.783997,103.633682 142.289017,105.452995 141.325256,107.679703 
	C140.132828,107.482063 139.409180,106.877022 138.685547,106.271988 
M159.473190,107.500824 
	C159.473190,107.500824 159.513840,107.484772 159.473190,107.500824 
z"/>
<path fill="#E2ECF3" opacity="1.000000" stroke="none" 
	d="
M118.973206,110.593887 
	C114.217949,112.055847 112.009933,109.507973 110.473373,104.799980 
	C109.227814,102.480560 108.858658,101.198082 111.237450,100.018349 
	C112.258232,99.512108 112.932663,97.304222 112.837929,95.933502 
	C112.782333,95.129120 110.904205,94.450706 108.993065,93.123299 
	C108.545105,97.823570 108.205353,101.388451 107.865601,104.953323 
	C107.442635,106.475685 107.019661,107.998047 106.474815,109.959030 
	C104.382881,109.712860 102.357803,109.474556 100.230667,108.519867 
	C100.899590,102.637581 101.670570,97.471687 102.494011,91.954330 
	C106.615532,91.954330 110.582001,91.646385 114.465538,92.080391 
	C116.497620,92.307487 119.365433,93.403679 120.033104,94.913437 
	C120.590950,96.174828 118.496437,98.609207 117.247002,100.653839 
	C117.270874,102.543320 117.624268,104.303101 118.023773,106.296417 
	C118.371002,107.884598 118.672104,109.239243 118.973206,110.593887 
z"/>
<path fill="#DFEBF4" opacity="1.000000" stroke="none" 
	d="
M159.984619,109.605553 
	C160.774887,107.537361 161.565155,105.469162 162.608307,103.208206 
	C163.567856,103.057442 164.719315,103.384834 164.906311,103.093407 
	C165.857300,101.611229 166.789276,100.040024 167.305023,98.369446 
	C169.018082,92.820488 172.382980,90.347145 178.889404,92.465416 
	C180.040329,97.597290 181.320160,103.303947 182.684921,109.389305 
	C178.767609,109.757843 174.705536,111.804253 174.693909,104.604591 
	C172.023483,105.471680 170.011810,106.124878 167.637985,107.449753 
	C164.845413,108.616142 162.415024,109.110847 159.984619,109.605553 
z"/>
<path fill="#EBF3F9" opacity="1.000000" stroke="none" 
	d="
M31.032501,92.071266 
	C31.455557,92.001556 31.878611,91.931847 33.010303,91.888733 
	C34.789429,92.000839 35.859913,92.086357 36.930397,92.171867 
	C38.970016,95.104156 41.009636,98.036438 43.527344,101.656052 
	C44.127213,98.735962 44.435081,96.696266 45.008762,94.734299 
	C45.213116,94.035423 46.062229,93.525070 46.617027,92.928665 
	C47.125568,93.609375 48.138264,94.353691 48.061687,94.960571 
	C47.522743,99.232025 47.187778,103.606453 45.936741,107.687126 
	C44.876728,111.144722 42.371490,111.145447 40.148228,108.258080 
	C38.165531,105.683144 36.236168,103.067139 34.350769,100.559044 
	C30.741978,102.722244 36.283733,111.110909 26.985279,109.084198 
	C24.252005,108.793648 22.290274,108.587471 20.328543,108.381294 
	C22.393497,107.166840 24.540787,105.889656 26.186195,106.361732 
	C30.229498,107.521797 29.930536,105.205566 29.839556,102.299210 
	C30.219097,98.613670 30.625799,95.342468 31.032501,92.071266 
z"/>
<path fill="#49335F" opacity="1.000000" stroke="none" 
	d="
M117.576523,100.524132 
	C118.496437,98.609207 120.590950,96.174828 120.033104,94.913437 
	C119.365433,93.403679 116.497620,92.307487 114.465538,92.080391 
	C110.582001,91.646385 106.615532,91.954330 102.494011,91.954330 
	C101.670570,97.471687 100.899590,102.637581 100.042282,108.157364 
	C98.805794,108.563057 97.655609,108.614861 96.224030,108.280060 
	C97.046425,106.083801 98.523720,104.399963 99.183655,102.440796 
	C101.127228,96.670807 98.636574,93.098457 93.337601,92.857544 
	C92.889198,97.997627 92.442421,103.118965 91.953484,108.723679 
	C92.491600,108.769661 93.716522,108.874336 94.941444,108.979019 
	C92.984230,109.831207 91.073486,111.237022 89.058929,111.406136 
	C86.020210,111.661217 82.909012,111.052795 79.650459,110.473778 
	C84.219368,109.952431 88.872925,108.608498 90.715523,104.111038 
	C92.360817,100.095154 91.773560,95.561279 87.798622,92.410461 
	C92.164062,88.568954 96.120705,91.062195 98.582787,92.506500 
	C102.320297,91.847832 104.625923,91.288857 106.963394,91.070152 
	C109.589294,90.824478 112.244125,90.822571 114.886040,90.830292 
	C118.093948,90.839668 121.548615,90.524048 122.347237,94.948975 
	C123.047699,94.797653 123.748154,94.646332 124.657852,94.674210 
	C123.637856,97.210587 122.408615,99.567772 120.922287,101.692360 
	C119.778999,101.308731 118.892807,101.157692 117.900703,100.884583 
	C117.794792,100.762520 117.576523,100.524132 117.576523,100.524132 
z"/>
<path fill="#F1F9FB" opacity="1.000000" stroke="none" 
	d="
M87.476685,92.209152 
	C91.773560,95.561279 92.360817,100.095154 90.715523,104.111038 
	C88.872925,108.608498 84.219368,109.952431 79.276894,110.442841 
	C77.576248,110.295845 76.071007,109.842155 74.292770,109.165665 
	C74.575157,107.607567 75.171692,106.287575 75.675117,104.932983 
	C76.253716,103.376137 76.749886,101.788658 77.736786,100.514267 
	C78.154083,101.799385 77.869057,102.858337 78.135338,103.753250 
	C78.561783,105.186440 79.353699,106.510880 79.991135,107.881287 
	C81.191467,106.770836 83.146774,105.828506 83.439064,104.515862 
	C84.100586,101.544991 83.941887,98.391472 84.126266,95.144905 
	C82.204178,95.144905 80.758308,95.144905 79.312439,95.144905 
	C77.547340,95.281372 75.782234,95.417839 73.829437,95.316513 
	C75.035591,94.072166 76.330887,92.427086 77.844048,92.193542 
	C80.884735,91.724236 84.044258,92.024925 87.476685,92.209152 
z"/>
<path fill="#E3EEF4" opacity="1.000000" stroke="none" 
	d="
M138.363464,106.461487 
	C139.409180,106.877022 140.132828,107.482063 141.129227,108.031807 
	C139.414444,113.489441 134.872696,109.524178 131.502716,110.983528 
	C130.963715,109.332275 130.520218,107.973602 130.052277,105.827148 
	C128.591721,101.278046 127.155594,97.516724 125.719475,93.755394 
	C125.719475,93.755394 125.817444,93.916924 126.071381,93.784378 
	C127.882683,93.117622 129.440033,92.583427 130.997391,92.049225 
	C133.798370,91.049820 134.190125,93.120430 134.724304,94.986595 
	C135.836716,98.872803 136.936462,102.762634 138.363464,106.461487 
z"/>
<path fill="#E7F0F7" opacity="1.000000" stroke="none" 
	d="
M29.866716,102.713539 
	C29.930536,105.205566 30.229498,107.521797 26.186195,106.361732 
	C24.540787,105.889656 22.393497,107.166840 20.328543,108.381294 
	C22.290274,108.587471 24.252005,108.793648 26.628471,109.009659 
	C24.643328,109.346100 22.243452,109.672722 19.356997,110.065559 
	C19.712139,106.680008 19.977385,104.151443 20.778505,101.236076 
	C23.546350,99.445786 23.442713,98.165833 21.110977,97.003731 
	C21.161547,95.706154 21.212118,94.408569 21.689213,92.614746 
	C24.030933,92.118492 25.946129,92.118492 28.385073,92.118492 
	C27.903830,94.827995 27.129877,97.074539 27.264856,99.265060 
	C27.338699,100.463448 28.949177,101.567146 29.866716,102.713539 
z"/>
<path fill="#C12E37" opacity="1.000000" stroke="none" 
	d="
M95.114731,108.848801 
	C93.716522,108.874336 92.491600,108.769661 91.953484,108.723679 
	C92.442421,103.118965 92.889198,97.997627 93.337601,92.857544 
	C98.636574,93.098457 101.127228,96.670807 99.183655,102.440796 
	C98.523720,104.399963 97.046425,106.083801 95.800171,108.192825 
	C95.657700,108.492195 95.288010,108.718582 95.114731,108.848801 
z"/>
<path fill="#D5E4EF" opacity="1.000000" stroke="none" 
	d="
M125.494476,93.826309 
	C127.155594,97.516724 128.591721,101.278046 130.026672,105.421944 
	C126.028786,104.566963 122.884987,105.025169 121.640137,109.761414 
	C121.513466,110.243347 120.373627,110.458992 119.338577,110.696045 
	C118.672104,109.239243 118.371002,107.884598 118.332253,106.304108 
	C119.268242,105.151985 119.941872,104.225700 120.796631,102.972275 
	C121.044975,102.405075 121.112183,102.165009 121.179382,101.924950 
	C122.408615,99.567772 123.637856,97.210587 124.885468,94.524399 
	C124.903831,94.195396 125.269478,93.897217 125.494476,93.826309 
z"/>
<path fill="#0C307B" opacity="1.000000" stroke="none" 
	d="
M159.615295,109.688362 
	C162.415024,109.110847 164.845413,108.616142 167.581375,107.878494 
	C168.029388,109.239273 168.171844,110.842995 168.367599,113.046822 
	C163.145340,112.368309 158.465057,111.760216 153.221664,111.078957 
	C152.315369,113.101921 150.477386,113.968872 148.081924,110.351158 
	C148.445541,109.945007 148.907104,109.863281 149.937576,109.764252 
	C150.892380,109.686798 151.074554,109.461723 151.053009,109.071709 
	C151.053009,109.071709 150.999130,109.026260 151.272675,108.970657 
	C151.704315,108.615860 151.862381,108.316650 152.020462,108.017441 
	C152.020462,108.017441 152.000000,108.000000 152.337372,107.910011 
	C154.121201,108.388855 155.567642,108.957687 157.014084,109.526520 
	C157.758041,109.608070 158.502014,109.689621 159.615295,109.688362 
z"/>
<path fill="#284672" opacity="1.000000" stroke="none" 
	d="
M29.839556,102.299210 
	C28.949177,101.567146 27.338699,100.463448 27.264856,99.265060 
	C27.129877,97.074539 27.903830,94.827995 28.385073,92.118492 
	C25.946129,92.118492 24.030933,92.118492 21.698906,92.224121 
	C24.121553,88.907143 27.342842,90.577629 30.775421,91.854309 
	C30.625799,95.342468 30.219097,98.613670 29.839556,102.299210 
z"/>
<path fill="#1A3776" opacity="1.000000" stroke="none" 
	d="
M108.267685,104.957321 
	C108.205353,101.388451 108.545105,97.823570 108.993065,93.123299 
	C110.904205,94.450706 112.782333,95.129120 112.837929,95.933502 
	C112.932663,97.304222 112.258232,99.512108 111.237450,100.018349 
	C108.858658,101.198082 109.227814,102.480560 110.215584,104.560486 
	C109.742302,104.933205 109.206032,104.947258 108.267685,104.957321 
z"/>
<path fill="#D5E4EF" opacity="1.000000" stroke="none" 
	d="
M130.679443,91.970795 
	C129.440033,92.583427 127.882683,93.117622 126.002090,93.720184 
	C127.239746,93.156479 128.800629,92.524422 130.679443,91.970795 
z"/>
<path fill="#EBF3F9" opacity="1.000000" stroke="none" 
	d="
M21.023792,97.295517 
	C23.442713,98.165833 23.546350,99.445786 20.974339,100.926132 
	C20.664091,100.543938 20.693884,100.084892 20.878155,99.106293 
	C21.032633,98.586746 21.047117,98.186249 21.047117,98.186249 
	C21.010283,97.986595 20.973446,97.786949 21.023792,97.295517 
z"/>
<path fill="#284672" opacity="1.000000" stroke="none" 
	d="
M36.873466,91.869713 
	C35.859913,92.086357 34.789429,92.000839 33.325027,91.818375 
	C34.226250,91.670143 35.521397,91.618851 36.873466,91.869713 
z"/>
<path fill="#DFEBF4" opacity="1.000000" stroke="none" 
	d="
M146.160034,108.321869 
	C146.690247,108.410683 147.206924,108.808540 147.876266,109.399536 
	C147.401459,109.272087 146.773972,108.951492 146.160034,108.321869 
z"/>
<path fill="#E7F0F7" opacity="1.000000" stroke="none" 
	d="
M20.955662,98.262726 
	C21.047117,98.186249 21.032633,98.586746 21.014683,98.785812 
	C20.812338,98.813354 20.768164,98.598129 20.955662,98.262726 
z"/>
<path fill="#F1F9FB" opacity="1.000000" stroke="none" 
	d="
M70.078964,105.257881 
	C70.318848,105.177277 70.540047,105.397163 70.847878,105.853317 
	C70.679550,105.875839 70.388138,105.698776 70.078964,105.257881 
z"/>
<path fill="#1A3B7E" opacity="1.000000" stroke="none" 
	d="
M56.189346,105.546677 
	C56.433048,102.111740 56.625240,99.070992 57.103516,96.075920 
	C57.225346,95.313004 58.247566,94.144409 58.869160,94.136070 
	C59.869064,94.122643 61.166466,94.664993 61.835506,95.418724 
	C64.477875,98.395569 61.585712,106.888680 57.711296,107.597130 
	C57.334728,107.665985 56.738396,106.532951 56.189346,105.546677 
z"/>
<path fill="#1B3B81" opacity="1.000000" stroke="none" 
	d="
M79.286575,95.513687 
	C80.758308,95.144905 82.204178,95.144905 84.126266,95.144905 
	C83.941887,98.391472 84.100586,101.544991 83.439064,104.515862 
	C83.146774,105.828506 81.191467,106.770836 79.991135,107.881287 
	C79.353699,106.510880 78.561783,105.186440 78.135338,103.753250 
	C77.869057,102.858337 78.154083,101.799385 78.048370,100.408279 
	C78.356926,98.629166 78.808823,97.255814 79.286575,95.513687 
z"/>
<path fill="#F1F9FB" opacity="1.000000" stroke="none" 
	d="
M70.685471,103.255371 
	C70.745193,102.954170 70.916328,102.772820 71.087463,102.591461 
	C71.182655,102.694336 71.277847,102.797211 71.373039,102.900078 
	C71.180984,103.058456 70.988937,103.216835 70.685471,103.255371 
z"/>
<path fill="#DFEBF4" opacity="1.000000" stroke="none" 
	d="
M157.019073,109.162231 
	C155.567642,108.957687 154.121201,108.388855 152.346527,107.919090 
	C153.029648,105.154457 154.041000,102.290749 155.052338,99.427048 
	C155.302353,99.534584 155.552368,99.642128 155.802368,99.749664 
	C156.209595,102.765755 156.616837,105.781853 157.019073,109.162231 
z"/>
<path fill="#DFEBF4" opacity="1.000000" stroke="none" 
	d="
M159.493515,107.492798 
	C159.513840,107.484772 159.473190,107.500824 159.493515,107.492798 
z"/>
<path fill="#DFEBF4" opacity="1.000000" stroke="none" 
	d="
M151.813766,108.143799 
	C151.862381,108.316650 151.704315,108.615860 151.302078,108.986404 
	C151.169250,108.745201 151.352295,108.482674 151.813766,108.143799 
z"/>
<path fill="#DFEBF4" opacity="1.000000" stroke="none" 
	d="
M150.864441,109.113876 
	C151.074554,109.461723 150.892380,109.686798 150.279938,109.674149 
	C150.220825,109.396904 150.428314,109.248474 150.864441,109.113876 
z"/>
<path fill="#49335F" opacity="1.000000" stroke="none" 
	d="
M120.615494,103.299408 
	C119.941872,104.225700 119.268242,105.151985 118.286133,106.070572 
	C117.624268,104.303101 117.270874,102.543320 117.247002,100.653839 
	C117.576523,100.524132 117.794792,100.762520 117.859909,101.180374 
	C118.821846,102.165291 119.718674,102.732346 120.615494,103.299408 
z"/>
<path fill="#022E89" opacity="1.000000" stroke="none" 
	d="
M120.796631,102.972275 
	C119.718674,102.732346 118.821846,102.165291 117.965820,101.302444 
	C118.892807,101.157692 119.778999,101.308731 120.922287,101.692360 
	C121.112183,102.165009 121.044975,102.405075 120.796631,102.972275 
z"/>
</svg>